<?xml version="1.0" encoding="utf-8"?>
<!-- Generator: Adobe Illustrator 24.3.0, SVG Export Plug-In . SVG Version: 6.00 Build 0)  -->
<svg version="1.1" id="Layer_1" xmlns="http://www.w3.org/2000/svg" xmlns:xlink="http://www.w3.org/1999/xlink" x="0px" y="0px"
	 viewBox="0 0 229 185" style="enable-background:new 0 0 229 185;" xml:space="preserve">
<style type="text/css">
	.st0{clip-path:url(#SVGID_2_);}
	.st1{fill-rule:evenodd;clip-rule:evenodd;fill:#FFFFFF;}
</style>
<g>
	<defs>
		<rect id="SVGID_1_" width="229" height="185"/>
	</defs>
	<clipPath id="SVGID_2_">
		<use xlink:href="#SVGID_1_"  style="overflow:visible;"/>
	</clipPath>
	<g class="st0">
		<path class="st1" d="M107.6,0.4c-0.3,0-1.5,0.1-2.5,0.2l-2,0.1l-0.9,3.1c-0.5,1.7-1.2,5-1.7,7.4l-0.9,4.3L97.2,16
			c-3.1,0.6-8.8,2.2-11.8,3.3l-2.2,0.8l-2.5-2.7c-3.1-3.3-7.9-8-8.2-8c-1.5,0-17.8,10.3-17.8,11.4c0,0.6,2.3,7.3,3.6,10.6
			c1.5,3.9,1.6,3.2-1,5.7c-2.2,2.2-6,6.5-7.9,9c-1.2,1.7-0.6,1.7-5.5,0.4c-6.8-1.7-10.3-2.3-10.7-1.8C31.4,47.3,25.8,59,24.6,63
			c-0.1,0.4,0.2,0.8,1.9,2.1c2,1.7,8.9,6.9,9.6,7.3c0.4,0.2,0.3,1.3-0.3,3.3c-0.1,0.4-1.2,0.4-18,0.4H0v16.6v16.6h10.5H21l0.7,3.2
			c0.4,1.8,0.8,3.3,0.9,3.3c0.6,0.2,6.8,0.8,10.7,1.1l4.3,0.3l0.5,1.5c1,2.9,3.3,8.2,4.8,11.2l1.6,3l-1.8,2.2
			c-3.5,4.3-7.2,9.4-7.2,9.9c0,0.9,7.6,10.3,11.5,14.2l2,1.9l4.2-2.1c2.3-1.2,5.3-2.8,6.7-3.6l2.5-1.5l1,0.8
			c2.5,2.1,7.5,5.4,10.8,7.2c1.3,0.7,2.4,1.4,2.5,1.4c0,0-0.1,1.4-0.3,3.1c-0.4,3.3-0.8,9-0.8,10.9l0,1.2l1.8,0.7
			c4.4,1.9,10.7,3.8,15.8,4.9l2.6,0.6l0.6-0.9c1.1-1.6,3.8-6.3,5.4-9.3c1.5-2.9,1.5-2.9,2.3-2.8c0.4,0,4.3,0.1,8.6,0.1l7.9,0.1
			l2.3,4.6c1.3,2.5,2.9,5.5,3.5,6.6l1.2,2l1-0.1c4.5-0.7,12.6-2.9,17.1-4.7l2.2-0.8l0.1-1.9c0.1-1.9-0.3-9.2-0.6-11.8l-0.2-1.4
			l2.7-1.4c2.9-1.5,8.1-4.8,10.4-6.6l1.4-1.1l2,1.2c2.2,1.4,7.9,4.6,10,5.6l1.3,0.7l3.9-4c3.9-4,6.8-7.4,8.9-10.3l1.1-1.5l-2-2.9
			c-2.1-3.1-3.6-5.2-5.7-7.8l-1.3-1.6l1.6-2.7c1.6-2.7,4-7.9,5-10.8c0.3-0.8,0.6-1.6,0.7-1.7c0.1-0.2,2-0.3,5.2-0.4
			c2.7-0.1,6.1-0.3,7.5-0.4l2.5-0.3l0.3-1.3c0.2-0.7,0.6-2.6,0.9-4.2l0.6-3l12.3-0.1l12.3-0.1V92.7V76.1h-19.7
			c-18.6,0-19.7,0-19.7-0.4c0-0.2-0.1-0.6-0.1-0.9c-0.1-0.4,0.2-0.7,1.9-1.8c1.8-1.2,7.9-5.7,9.6-7.1l0.7-0.5l-0.9-2.8
			c-1.6-4.8-6.2-14.7-7.4-16.3c-0.4-0.5-5.6,0.4-12.4,2c-1.5,0.4-2.8,0.6-2.8,0.6c-0.2-0.9-6.3-8.3-8.9-10.9l-2.2-2.1l0.8-1.9
			c0.9-2.1,3.1-7.9,4-10.4c0.4-1.3,0.5-1.8,0.3-2.1c-0.6-1-7.9-6.3-12.1-8.7c-2.8-1.6-5-2.8-5.1-2.8c-0.3,0-6.7,6-8.9,8.3l-2.1,2.2
			l-1.6-0.7c-3.4-1.4-13.4-4.4-14.9-4.4c0,0-0.1-0.2-0.1-0.4c0-0.9-1.2-6.8-2.1-10.6L124.3,1l-1-0.1C120,0.3,110.2,0.1,107.6,0.4z
			 M115.4,21.1c-4,4.5-5.3,5.9-5.2,6.1c0,0.1,2.3,2.6,5.1,5.5c2.7,2.9,4.9,5.4,4.8,5.5c-0.2,0.1-7.5,1.1-8.5,1.1
			c-0.3,0-1.4-1.1-3.5-3.5l-3-3.5l-1.5,1.5l-1.5,1.5l0.3,2.5c0.2,1.7,0.3,2.5,0.1,2.6c-0.4,0.2-6.9,1-7,0.8c-0.1-0.1-2.6-19-2.5-19
			c0.2-0.1,7.2-0.9,7.3-0.8c0.1,0.1,0.3,1.5,0.5,3.2c0.2,1.7,0.4,3.1,0.4,3.1c0,0,1.4-1.6,3.1-3.7c1.8-2.2,3.2-3.8,3.4-3.8
			c0.2,0,2.1-0.3,4.3-0.5C117.7,19,117.4,18.9,115.4,21.1z M138.6,25c5.2,2,9.5,3.6,9.5,3.6c0.2,0.2-1.5,4.2-1.7,4.2
			c-0.1,0-2.8-1-6-2.2c-3.2-1.2-5.8-2.2-6-2.2c-0.2,0-1,2.1-0.9,2.2c0,0,2.2,0.8,4.9,1.8c4.4,1.6,4.9,1.9,4.7,2.3
			c-0.1,0.3-0.4,1.3-0.8,2.2l-0.7,1.8l-0.8-0.3c-0.5-0.2-2.6-1-4.8-1.8c-4.7-1.8-4.2-1.8-4.7-0.4c-0.5,1.4-1.3,0.9,6,3.7
			c3.4,1.3,6.2,2.4,6.2,2.6c0,0.6-1.5,4.3-1.7,4.3c-0.4,0-19.2-7.1-19.4-7.3c-0.1-0.1,3.4-9.9,6.4-17.7C129,21.4,127.8,21,138.6,25z
			 M82.1,29.5c0.5,0.9,2.6,4.7,4.7,8.3c2,3.6,3.7,6.6,3.7,6.7c0,0.1-6.1,3.6-6.4,3.6c-0.1,0-1.7-2.8-3.6-6.1c-1.9-3.4-4-7.1-4.6-8.2
			c-0.7-1.2-1.2-2.2-1.2-2.3c0-0.2,6-3.7,6.3-3.6C81.1,27.8,81.6,28.6,82.1,29.5z M160,38.3c2.1,0.9,5.6,4,8.1,7.4
			c3.2,4.2,4,7.1,2.7,9.6c-0.8,1.6-0.8,1.6-3.8-1.8l-2.7-3.1l0-1.3c0-2.6-3.8-5.9-4.4-3.8c-0.2,0.7,0.1,1.1,3,5.7
			c4.2,6.3,4.6,9,1.9,11.3c-3.3,2.8-6.6,1.9-11.6-2.9c-6.3-6.1-8.4-11.9-5.4-14.6c0.6-0.6,6.6,6,6.2,6.8c-0.7,1.5,2.8,5.4,4.2,4.7
			c1-0.6,0.6-1.8-2-5.5c-3-4.4-3.9-6.4-3.7-8.2C153,39.1,156.7,37,160,38.3z M68.7,40.4c4.8,2.4,4.6,6.5-0.9,13.3
			c-1.5,1.9-2.8,3.5-2.8,3.5c0,0.1,1.1,1,2.5,2.2c1.4,1.1,2.5,2.1,2.5,2.2c0,0.1-3.8,5-4.4,5.6c-0.1,0.1-0.6-0.2-1.3-0.7
			c-0.6-0.5-3.9-3.2-7.4-6c-3.5-2.8-6.3-5.2-6.4-5.3c0-0.1,0.9-1.3,2-2.8c1.2-1.4,3.2-3.9,4.5-5.6C62.6,40,65.2,38.6,68.7,40.4z
			 M62.5,47.2c-0.3,0.2-1.2,1.1-2,2.1c-0.8,1-1.6,2-1.8,2.2c-0.3,0.3-0.1,0.5,1.3,1.7l1.6,1.3l1-1.1c2.8-3.2,3.3-4.7,2.2-5.8
			C64.1,46.8,63.4,46.7,62.5,47.2z M118.8,48.4c13.2,1.9,24.7,9.1,31.9,20.2c1.5,2.3,3.8,6.8,3.8,7.3c0,0.2-12.3,0.2-41.9,0.2
			c-23,0-41.9-0.1-41.9-0.2c0-0.5,2.9-5.8,4.2-7.8C84.6,53.8,101.9,46,118.8,48.4z M225.3,92.8l-0.1,12.7H114.5H3.8L3.7,92.8L3.7,80
			h110.8h110.8L225.3,92.8z M124.7,82.8c-4.1,1-6.2,4.3-5.1,8.1c0.7,2.5,2,3.3,7.3,4.7c2.8,0.8,3.6,1.2,3.8,2.1
			c0.2,1.9-4.1,1.8-5.1-0.1l-0.3-0.7h-3.1H119l0.1,1.1c1,7,14.7,8.4,17.5,1.9c2-4.7-0.1-7.5-6.9-9.4c-3.9-1.1-4.5-1.5-3.8-2.6
			c0.8-1.2,3.5-0.9,4.1,0.4l0.4,0.7h3.1c3.5,0,3.4,0.1,2.7-1.9C135.2,83.6,129.9,81.6,124.7,82.8z M186.4,83
			c-9.7,3.1-8.8,18.9,1.2,20.8c6.3,1.2,11.7-1.9,12.3-7.1l0.1-1.2h-3.1c-2.3,0-3.1,0.1-3.1,0.3c0,3.3-5.1,4-6.7,1
			c-0.7-1.4-0.7-6,0.1-7.4c1.5-2.8,6.5-2.1,6.5,1c0,0.3,0.4,0.4,3.2,0.4c3.6,0,3.4,0.1,2.9-2C198.3,83.8,192.1,81.1,186.4,83z
			 M8.5,93.3v10.3h3h3l0-6.3l0-6.3l1.5,5.8c2,7.8,1.5,7,4.2,6.9l2.2-0.1L24,97l1.7-6.5l0,6.6l0,6.6l2.9-0.1l2.9-0.1l0.1-10.2
			L31.6,83l-4.1,0.1l-4.1,0.1L22.4,87c-0.6,2.1-1.4,5-1.8,6.4L20,95.9l-0.4-1.7c-0.2-0.9-1-3.8-1.7-6.4l-1.3-4.7l-4-0.1l-4-0.1V93.3
			z M40.3,83.6c-1.3,3.5-6.9,19.6-6.9,19.8c0,0.1,1.5,0.2,3.3,0.1l3.3-0.1l0.3-1.3l0.3-1.3h3.3h3.3l0.4,1.4l0.4,1.4h3.2
			c2.5,0,3.2-0.1,3.2-0.3c0-0.2-0.9-3-2.1-6.2c-1.1-3.3-2.7-7.7-3.5-10L47.3,83l-3.4,0l-3.4,0L40.3,83.6z M56.3,93.3v10.3h3.2h3.2
			v-3.2v-3.2l0.8-0.9l0.8-0.9l2.5,4.1l2.5,4.1h3.9c3.2,0,3.9-0.1,3.8-0.3c-0.1-0.2-1.9-3.1-4-6.4c-4.2-6.6-4.1-6.3-3.6-6.8
			c0.2-0.2,1.8-1.8,3.6-3.7l3.2-3.4l-3.9,0l-3.9,0l-2.9,3.3l-2.9,3.3l-0.1-3.3L62.7,83h-3.2h-3.2V93.3z M78.4,93.2l0.1,10.2h8.4h8.4
			l0.1-2.5l0.1-2.5l-5.1-0.1l-5.1-0.1V97v-1.5l4.2-0.1l4.2-0.1L93.4,93l-0.1-2.3l-4.2-0.1L85,90.5v-1.3V88h4.9h4.9v-2.5V83h-8.2
			h-8.2L78.4,93.2z M98.2,93.3v10.3l3.3-0.1l3.3-0.1l0.1-3.5l0.1-3.5h1.8c3.2,0,3.4,0.2,3.7,4.2c0.1,1.5,0.2,2.8,0.2,2.8
			c0,0,1.5,0.1,3.4,0.1h3.3l-0.2-0.6c-0.1-0.3-0.3-1.9-0.5-3.5c-0.4-3.8-0.7-4.4-2.5-5.3c-0.6-0.3-0.6-0.4-0.2-0.5
			c2.8-0.9,3.5-6.4,1.1-8.7c-1.6-1.6-2.4-1.8-10.2-1.9L98.2,83V93.3z M140.2,93.2l0.1,10.2l3.3,0.1l3.3,0.1v-3.2v-3.2l3.4-0.1
			c6.2-0.2,9.1-2.9,8.4-8.1c-0.6-4.9-3.2-6.1-13-6.1l-5.4,0L140.2,93.2z M161.9,91.1c-1.6,4.4-3.2,9-3.6,10.2
			c-0.9,2.5-1.1,2.4,2.8,2.3l3-0.1l0.4-1.3l0.4-1.3l3.2,0.1l3.2,0.1l0.4,1.3l0.4,1.3l3.3,0.1c1.8,0,3.3,0,3.3-0.1
			c0-0.1-0.8-2.4-1.7-5.1c-1-2.7-2.5-7.1-3.4-9.7c-0.9-2.6-1.8-5-1.8-5.2c-0.1-0.4-0.5-0.4-3.5-0.4h-3.4L161.9,91.1z M202.7,93.2
			l0.1,10.2h8.4h8.4l0.1-2.5l0.1-2.5l-5.1-0.1l-5.1-0.1l-0.1-1.5l-0.1-1.5h4.1h4.1V93v-2.4h-4.1h-4.1v-1.3V88l4.9-0.1l4.9-0.1
			l0.1-2.5l0.1-2.5h-8.3h-8.3L202.7,93.2z M110.1,88.6c1.3,1.8,0.1,3.1-2.9,3.1h-2.3v-1.9V88l2.4,0.1
			C109.4,88.2,109.8,88.2,110.1,88.6z M150.8,88.3c1.1,0.3,1.5,0.7,1.5,1.8c0,1.6-0.8,2.1-3.7,2.1h-1.8v-2.1V88l1.5,0
			C149.2,88,150.3,88.1,150.8,88.3z M44.9,92.9c0.5,1.7,0.9,3.2,0.9,3.3c0,0.1-0.8,0.2-2,0.2c-1.5,0-1.9-0.1-1.9-0.3
			c0.1-0.2,0.5-1.7,1-3.4c0.5-1.7,0.9-3.1,1-3.1C44,89.8,44.4,91.2,44.9,92.9z M170.1,96.4c0,0-0.9,0.1-1.9,0.1
			c-2.2,0-2.2,0.1-1.5-2.1c0.2-0.8,0.7-2.2,0.9-3.2l0.5-1.7l1,3.4C169.7,94.8,170.1,96.4,170.1,96.4z M154.9,109.8
			c-2.3,7.9-11.4,18.1-20.5,23.2c-23.2,12.9-54,2-63.7-22.6l-0.4-1.1h42.4h42.4L154.9,109.8z M156.6,126.7c0,0.1-0.4,2.4-0.9,5
			c-0.5,2.6-0.9,4.8-0.9,4.9c0,0,3.3,1,7.2,2.2c3.9,1.1,7.1,2.1,7.2,2.2c0.1,0.1-6.6,5.4-7.1,5.5c-0.2,0.1-2.3-0.5-4.7-1.3l-4.4-1.5
			l-0.5,2.1l-0.5,2.1l1.3,1.7c0.7,0.9,1.4,1.9,1.6,2.1c0.2,0.3-0.1,0.7-2.6,2.6l-2.9,2.2l-0.5-0.5c-0.7-0.8-11.1-14.1-11.2-14.5
			c-0.1-0.3,5.3-4.7,5.6-4.7c0.1,0,1,1.1,2.1,2.5s2,2.4,2.1,2.3c0.1-0.1,0.4-2.2,0.7-4.7c0.5-3.6,0.7-4.6,1-4.8
			c0.2-0.2,1.9-1.5,3.7-2.9C156.3,126.5,156.6,126.3,156.6,126.7z M78.3,133.5c7.9,6.3,9.2,8.4,7.5,12.1c-2.3,4.9-6.6,4.7-13.5-0.8
			c-1.7-1.4-3.2-2.5-3.3-2.5c-0.1,0-1.1,1.1-2.2,2.5c-1.1,1.4-2.1,2.5-2.2,2.5c-0.3,0-5.7-4.3-5.6-4.6c0-0.2,5.1-6.7,11.3-14.3
			l0.6-0.7l0.9,0.7C72.3,128.8,75.2,131.1,78.3,133.5z M72.9,137.1c-1.5,1.8-1.5,1.6,0.2,3c3.3,2.6,4.1,2.9,5.2,2
			c1.6-1.4,1.2-2.4-2.1-5C74,135.3,74.3,135.3,72.9,137.1z M96.1,143.5c8.2,1.9,12.3,2.8,13.7,3.1c0.8,0.2,1.4,0.3,1.5,0.3
			c0.3,0.2-1,4.4-1.3,4.4c-0.2,0-3.1-0.6-6.3-1.4c-6.4-1.4-6.2-1.4-6.4-0.1c-0.2,1.1-0.4,1,5,2.2c2.6,0.6,4.9,1.1,4.9,1.2
			c0.3,0.2-0.8,4.3-1.2,4.4c-0.2,0-2.5-0.4-5.2-1l-4.8-1.1l-0.2,1c-0.1,0.5-0.2,1.1-0.2,1.3c0,0.2,1.8,0.7,6.4,1.8
			c3.5,0.8,6.5,1.5,6.6,1.6c0.2,0.1-0.7,4.4-0.9,4.7c-0.1,0.1-20.3-4.4-20.5-4.6c0,0,0.5-2.5,1.2-5.6c0.7-3.1,1.6-7.2,2.1-9.1
			c0.9-3.9,0.9-4.1,1.1-4.1C91.5,142.5,93.6,142.9,96.1,143.5z M134.7,152.2c3.1,4.6,5.6,8.5,5.7,8.6c0,0.2-1.1,0.5-3.8,1.1
			l-3.8,0.8l-0.4-0.5c-0.2-0.3-0.5-0.6-0.6-0.8c-0.2-0.3-0.6-0.3-4.2,0.5l-4,0.9l-0.2,1l-0.2,1l-3.7,0.8c-2.1,0.4-3.8,0.7-3.8,0.7
			c-0.1-0.1,0.2-1.5,0.6-3.3c0.4-1.8,1.3-6.3,2.1-10.2c0.8-3.8,1.5-7,1.5-7c0.1-0.1,8.3-1.8,8.8-1.8
			C129,143.9,129.7,144.9,134.7,152.2z M125.3,150.6c0,0.1-0.2,1.5-0.5,3.2c-0.2,1.6-0.4,3.2-0.5,3.4l0,0.5l2.3-0.5
			c1.3-0.3,2.3-0.5,2.3-0.6C128.9,156.3,125.3,150.3,125.3,150.6z"/>
	</g>
</g>
</svg>
