<svg width="229" height="185" viewBox="0 0 229 185" fill="none" xmlns="http://www.w3.org/2000/svg">
<g clip-path="url(#clip0)">
<path fill-rule="evenodd" clip-rule="evenodd" d="M107.63 0.366452C107.315 0.404184 106.175 0.499085 105.097 0.577407L103.136 0.719759L102.285 3.84749C101.817 5.56715 101.051 8.89383 100.582 11.2389L99.7295 15.5032L97.1504 15.9891C94.0824 16.5665 88.3986 18.1673 85.3958 19.2992L83.2415 20.111L80.7271 17.4304C77.6453 14.1443 72.7836 9.3912 72.4957 9.38206C70.9871 9.33575 54.731 19.7223 54.731 20.7325C54.731 21.3087 56.9992 28.0616 58.3051 31.3722C59.8262 35.2283 59.935 34.5817 57.3393 37.0909C55.09 39.2656 51.3429 43.5773 49.48 46.1357C48.2417 47.8359 48.836 47.7907 43.9525 46.5524C37.1547 44.8282 33.6378 44.2336 33.2611 44.7442C31.369 47.3088 25.8438 59.0211 24.641 63.0155C24.5253 63.4014 24.8654 63.7918 26.505 65.1542C28.4996 66.8115 35.4189 72.0688 36.1247 72.4633C36.4854 72.6651 36.3835 73.7182 35.807 75.7494C35.7 76.1261 34.6471 76.1496 17.8465 76.1496H0V92.7287V109.308H10.4997H20.9987L21.6537 112.535C22.0138 114.31 22.4162 115.798 22.5473 115.841C23.1267 116.034 29.3389 116.645 33.2456 116.895L37.5228 117.168L38.0266 118.669C39.0096 121.597 41.2801 126.844 42.8614 129.84L44.4649 132.878L42.6558 135.099C39.1441 139.411 35.495 144.458 35.495 145.003C35.495 145.949 43.1241 155.302 47.0418 159.159L49.0157 161.103L53.1904 158.999C55.4861 157.842 58.4981 156.235 59.8835 155.427L62.4025 153.96L63.433 154.805C65.9675 156.884 70.923 160.203 74.196 162.014C75.5185 162.746 76.6337 163.371 76.6738 163.403C76.7139 163.434 76.585 164.833 76.3881 166.512C76.0011 169.8 75.5757 175.464 75.5723 177.375L75.57 178.554L77.3447 179.294C81.7902 181.147 88.0545 183.08 93.1503 184.173L95.7312 184.726L96.3781 183.777C97.4492 182.204 100.151 177.52 101.741 174.481C103.234 171.627 103.238 171.622 104.002 171.696C104.423 171.736 108.308 171.797 112.637 171.832L120.506 171.896L122.841 176.447C124.125 178.95 125.719 181.906 126.383 183.016L127.591 185.034L128.545 184.885C133.021 184.189 141.153 181.976 145.644 180.232L147.82 179.387L147.895 177.448C147.971 175.504 147.592 168.292 147.273 165.623L147.103 164.197L149.816 162.792C152.719 161.29 157.891 157.997 160.254 156.147L161.697 155.017L163.689 156.26C165.91 157.647 171.602 160.823 173.659 161.825L174.996 162.475L178.93 158.473C182.819 154.517 185.756 151.12 187.871 148.129L188.96 146.589L186.982 143.697C184.863 140.597 183.337 138.51 181.307 135.933L180.033 134.317L181.616 131.588C183.177 128.898 185.612 123.642 186.642 120.742C186.933 119.924 187.255 119.143 187.359 119.005C187.477 118.848 189.386 118.694 192.529 118.59C195.27 118.498 198.646 118.302 200.031 118.153L202.55 117.883L202.863 116.625C203.035 115.934 203.454 114.03 203.796 112.395L204.415 109.422L216.708 109.363L229 109.304V92.727V76.1496H209.306C190.704 76.1496 189.612 76.1273 189.609 75.7494C189.607 75.5293 189.549 75.1377 189.479 74.8793C189.374 74.4894 189.698 74.1801 191.372 73.0721C193.186 71.8704 199.225 67.4152 200.93 66.0209L201.599 65.4738L200.653 62.7193C199.004 57.9171 194.466 48.0068 193.206 46.4581C192.816 45.979 187.615 46.82 180.795 48.4636C179.284 48.8278 178.043 49.109 178.038 49.0885C177.809 48.1909 171.76 40.7835 169.159 38.2154L166.985 36.0693L167.792 34.2136C168.718 32.084 170.933 26.2847 171.756 23.8356C172.178 22.5813 172.255 22.0759 172.071 21.7775C171.449 20.7662 164.137 15.5272 159.956 13.0969C157.164 11.4739 154.998 10.2905 154.819 10.2905C154.523 10.2905 148.159 16.2635 145.965 18.6L143.881 20.8188L142.301 20.1533C138.922 18.7304 128.877 15.7787 127.414 15.7787C127.365 15.7787 127.324 15.5798 127.324 15.3368C127.324 14.4861 126.152 8.54281 125.24 4.76906L124.32 0.962729L123.36 0.824379C119.951 0.334438 110.24 0.0514493 107.63 0.366452ZM115.383 21.0738C111.355 25.5318 110.114 26.9914 110.186 27.1823C110.229 27.2944 112.505 29.7858 115.244 32.7192C117.984 35.6525 120.148 38.1217 120.053 38.2068C119.887 38.3561 112.519 39.3325 111.559 39.3325C111.233 39.3325 110.138 38.2337 108.042 35.8034L104.996 32.2744L103.474 33.8025L101.95 35.3307L102.282 37.8261C102.506 39.5166 102.537 40.3684 102.377 40.4667C102.015 40.6908 95.4907 41.4643 95.3293 41.3031C95.2027 41.1768 92.7221 22.3521 92.82 22.2623C92.9757 22.1194 99.9888 21.3516 100.102 21.4654C100.181 21.5448 100.417 22.9952 100.627 24.688C100.837 26.3814 101.038 27.7946 101.072 27.8295C101.107 27.8638 102.495 26.1956 104.156 24.122C105.931 21.9084 107.341 20.3483 107.576 20.3426C107.794 20.3374 109.725 20.091 111.866 19.7955C117.693 18.9899 117.371 18.8727 115.383 21.0738ZM138.59 25.0487C143.781 27.0034 148.067 28.6413 148.114 28.6887C148.294 28.8677 146.662 32.9267 146.411 32.9284C146.266 32.929 143.561 31.9519 140.401 30.7571C137.24 29.5623 134.561 28.5847 134.446 28.5847C134.264 28.5847 133.416 30.6691 133.565 30.752C133.596 30.7691 135.811 31.5986 138.487 32.5951C142.904 34.2404 143.338 34.4497 143.207 34.8687C143.127 35.1231 142.76 36.1213 142.392 37.0875L141.722 38.8448L140.878 38.5379C140.414 38.3686 138.243 37.5523 136.056 36.7233C131.312 34.9265 131.855 34.9671 131.35 36.3706C130.84 37.7866 130.024 37.2887 137.343 40.0271C140.775 41.3111 143.583 42.4654 143.583 42.5917C143.583 43.1703 142.084 46.8789 141.849 46.8789C141.467 46.8789 122.666 39.8024 122.433 39.5709C122.285 39.4234 125.814 29.6577 128.821 21.8959C129.02 21.3825 127.841 21.0017 138.59 25.0487ZM82.0982 29.5131C82.6203 30.449 84.7145 34.1633 86.7515 37.7678C88.7885 41.3723 90.455 44.3726 90.455 44.4343C90.455 44.5755 84.3418 48.024 84.1031 48.0177C84.0069 48.0148 82.3867 45.2621 80.5027 41.9006C78.6186 38.5384 76.5318 34.8373 75.8654 33.6745C75.199 32.5122 74.654 31.4769 74.654 31.3734C74.654 31.1407 80.6418 27.7003 80.9355 27.7649C81.0528 27.7906 81.5761 28.5772 82.0982 29.5131ZM160.042 38.3326C162.15 39.1896 165.594 42.3476 168.151 45.7686C171.315 50.0014 172.111 52.841 170.832 55.3445C170.018 56.9361 170.03 56.9418 167.058 53.5557L164.318 50.4336L164.313 49.1651C164.302 46.5616 160.477 43.2383 159.942 45.3679C159.766 46.0682 159.999 46.5027 162.975 51.0311C167.142 57.3717 167.583 60.0084 164.859 62.2969C161.573 65.0581 158.244 64.2166 153.237 59.3589C146.909 53.2201 144.798 47.4826 147.866 44.7602C148.508 44.1908 154.454 50.7366 154.067 51.585C153.366 53.12 156.835 57.0053 158.236 56.2558C159.282 55.6972 158.849 54.4807 156.283 50.7664C153.247 46.3695 152.334 44.3411 152.576 42.534C153.044 39.0575 156.727 36.9846 160.042 38.3326ZM68.6788 40.3507C73.5124 42.7964 73.2428 46.8657 67.7995 53.6248C66.28 55.5114 65.0371 57.1065 65.0377 57.1693C65.0383 57.2322 66.1718 58.2024 67.5561 59.3252C68.941 60.448 70.074 61.4359 70.074 61.5211C70.074 61.6537 66.2789 66.5028 65.7075 67.1002C65.5856 67.2277 65.0698 66.9476 64.4114 66.3959C63.8103 65.8922 60.4846 63.1847 57.021 60.38C53.5574 57.5747 50.6937 55.2033 50.6571 55.1101C50.6204 55.0169 51.5399 53.7701 52.7003 52.3391C53.8608 50.9082 55.8897 48.3996 57.2094 46.7645C62.6412 40.034 65.2118 38.5967 68.6788 40.3507ZM62.5033 47.2156C62.1809 47.3905 61.2609 48.3384 60.4589 49.3217C59.6568 50.305 58.8576 51.2792 58.6824 51.4873C58.399 51.824 58.545 52.0115 60.0129 53.1955L61.6617 54.5258L62.6664 53.3893C65.4608 50.229 66.0133 48.734 64.8247 47.5472C64.0954 46.8194 63.413 46.7216 62.5033 47.2156ZM118.806 48.3658C132.047 50.245 143.473 57.4878 150.734 68.6032C152.205 70.8551 154.575 75.3606 154.575 75.9049C154.575 76.0781 142.297 76.1496 112.668 76.1496C89.6191 76.1496 70.7627 76.0724 70.7644 75.9781C70.7747 75.4956 73.6361 70.2045 74.9654 68.2105C84.5915 53.7718 101.851 45.959 118.806 48.3658ZM225.28 92.7859L225.221 105.535H114.5H3.7785L3.71953 92.7859L3.65999 80.0371H114.5H225.34L225.28 92.7859ZM124.747 82.8006C120.667 83.7611 118.541 87.1152 119.634 90.8684C120.349 93.3255 121.681 94.1865 126.965 95.6071C129.77 96.3612 130.61 96.8306 130.715 97.703C130.943 99.5982 126.586 99.5376 125.599 97.6315L125.251 96.9592H122.134H119.018L119.165 98.0294C120.121 104.997 133.876 106.466 136.703 99.9034C138.708 95.251 136.607 92.3839 129.843 90.5379C125.972 89.4815 125.32 89.0281 126.058 87.9047C126.813 86.7539 129.529 86.9992 130.191 88.278L130.542 88.9555H133.627C137.118 88.9555 137.02 89.0218 136.363 87.0969C135.154 83.5536 129.863 81.5967 124.747 82.8006ZM186.352 82.9967C176.652 86.093 177.557 101.927 187.542 103.818C193.857 105.014 199.229 101.927 199.843 96.7483L199.981 95.5871H196.858C194.604 95.5871 193.734 95.6626 193.734 95.8581C193.734 99.1265 188.585 99.8811 186.999 96.8449C186.264 95.4385 186.295 90.8632 187.049 89.4529C188.563 86.6218 193.505 87.3622 193.505 90.419C193.505 90.7369 193.926 90.7849 196.711 90.7849C200.348 90.7849 200.16 90.9158 199.591 88.7806C198.268 83.8205 192.148 81.1462 186.352 82.9967ZM8.473 93.2952V103.591H11.45H14.427L14.4333 97.2451L14.4402 90.8993L15.9212 96.6556C17.9336 104.479 17.4137 103.621 20.0925 103.542L22.3275 103.477L23.9786 96.9592L25.6297 90.4419L25.6388 97.0232L25.648 103.605L28.5677 103.541L31.4875 103.477L31.547 93.2381L31.6066 82.9996L27.5453 83.0619L23.4834 83.1242L22.383 87.0117C21.7779 89.1499 20.9901 92.0141 20.6323 93.3764L19.9814 95.853L19.5726 94.1876C19.3482 93.2718 18.5748 90.4076 17.8551 87.823L16.5464 83.1242L12.5097 83.0619L8.473 82.9996V93.2952ZM40.3487 83.6387C39.0817 87.1164 33.434 103.268 33.434 103.413C33.434 103.518 34.8979 103.575 36.6869 103.54L39.9405 103.477L40.2611 102.162L40.5822 100.847H43.8661H47.1505L47.5358 102.219L47.9211 103.591H51.0973C53.6341 103.591 54.273 103.528 54.273 103.278C54.273 103.105 53.337 100.301 52.1925 97.0461C51.0487 93.7909 49.4772 89.3019 48.7003 87.0695L47.2885 83.0116L43.9331 83.0105L40.5777 83.0099L40.3487 83.6387ZM56.334 93.3004V103.591H59.54H62.746V100.342V97.093L63.5818 96.2383L64.4171 95.3836L66.9384 99.4872L69.4597 103.591H73.3407C76.5507 103.591 77.201 103.536 77.1003 103.275C77.0339 103.101 75.2191 100.21 73.0687 96.8523C68.8712 90.2978 68.9897 90.5231 69.5026 90.0983C69.6921 89.9411 71.3014 88.282 73.0785 86.4115L76.3097 83.0099L72.4476 83.0173L68.5855 83.0253L65.723 86.3634L62.8605 89.7016L62.797 86.3554L62.734 83.0099H59.5337H56.334V93.3004ZM78.373 93.2432L78.4325 103.477H86.791H95.1495L95.2142 101.023L95.2795 98.5685L90.1762 98.5074L85.0735 98.4456V96.9592V95.4728L89.2688 95.4105L93.4646 95.3482L93.3908 93.0094L93.3175 90.6706L89.1382 90.6083L84.959 90.546V89.2934V88.0408H89.8825H94.806V85.5253V83.0099H86.5597H78.3134L78.373 93.2432ZM98.241 93.2884V103.603L101.504 103.54L104.767 103.477L104.83 99.9892L104.894 96.5019H106.705C109.915 96.5019 110.115 96.7294 110.388 100.706C110.494 102.23 110.586 103.502 110.593 103.534C110.601 103.565 112.113 103.591 113.954 103.591H117.301L117.144 102.962C117.057 102.616 116.853 101.047 116.69 99.4747C116.301 95.7078 116.009 95.0926 114.171 94.1573C113.538 93.8349 113.527 93.8063 113.982 93.6622C116.774 92.7778 117.476 87.2936 115.102 84.9228C113.492 83.3157 112.697 83.1705 104.939 83.0648L98.241 82.9739V93.2884ZM140.203 93.2432L140.262 103.477L143.526 103.54L146.789 103.603V100.421V97.2376L150.167 97.149C156.412 96.9855 159.258 94.2591 158.577 89.0961C157.93 84.1956 155.41 83.0145 145.584 83.0116L140.143 83.0099L140.203 93.2432ZM161.938 91.0708C160.385 95.5042 158.771 100.09 158.35 101.26C157.44 103.791 157.239 103.625 161.114 103.541L164.079 103.477L164.497 102.155L164.916 100.834L168.151 100.898L171.386 100.961L171.75 102.219L172.114 103.477L175.367 103.54C177.156 103.575 178.62 103.521 178.62 103.419C178.62 103.317 177.839 101.025 176.885 98.3244C175.93 95.6243 174.392 91.2537 173.467 88.6125C172.542 85.9713 171.714 83.6302 171.629 83.4101C171.49 83.0545 171.1 83.0099 168.116 83.0099H164.76L161.938 91.0708ZM202.72 93.2432L202.78 103.477H211.138H219.496L219.561 101.023L219.626 98.5685L214.523 98.5074L209.42 98.4456L209.353 96.902L209.285 95.3585H213.418H217.55V92.9574V90.5562H213.428H209.306V89.3031V88.0499L214.172 87.9882L219.038 87.9265L219.104 85.4682L219.168 83.0099H210.914H202.66L202.72 93.2432ZM110.058 88.6056C111.371 90.399 110.158 91.6996 107.172 91.6996H104.882V89.8445V87.9888L107.31 88.0785C109.373 88.1551 109.785 88.234 110.058 88.6056ZM150.79 88.2626C151.876 88.5136 152.285 89.0012 152.285 90.0434C152.285 91.6876 151.464 92.157 148.587 92.157H146.789V90.0989V88.0408L148.335 88.0465C149.185 88.0494 150.29 88.1466 150.79 88.2626ZM44.8909 92.9242C45.3907 94.6381 45.8 96.1445 45.8 96.2715C45.8 96.4081 45.0008 96.5019 43.8289 96.5019C42.3518 96.5019 41.883 96.4304 41.9574 96.216C42.0123 96.0588 42.4612 94.5238 42.9547 92.8047C43.4487 91.0856 43.8815 89.7078 43.917 89.7433C43.9525 89.7787 44.3905 91.2103 44.8909 92.9242ZM170.141 96.4447C170.144 96.4761 169.271 96.5019 168.2 96.5019C165.972 96.5019 166.034 96.5888 166.694 94.4106C166.936 93.6114 167.362 92.1856 167.64 91.2423L168.146 89.5272L169.139 92.9574C169.687 94.8439 170.137 96.4132 170.141 96.4447ZM154.912 109.822C152.586 117.684 143.524 127.94 134.423 133.014C111.265 145.921 80.4494 134.997 70.7581 110.444L70.3099 109.308H112.687H155.064L154.912 109.822ZM156.636 126.707C156.636 126.844 156.209 129.111 155.688 131.744C155.166 134.378 154.78 136.571 154.829 136.619C154.878 136.667 158.104 137.641 161.997 138.784C165.89 139.928 169.112 140.899 169.156 140.943C169.254 141.041 162.542 146.299 162.104 146.466C161.93 146.532 159.816 145.928 157.404 145.123L153.02 143.659L152.537 145.724L152.055 147.788L153.373 149.484C154.097 150.415 154.815 151.355 154.968 151.571C155.212 151.915 154.894 152.236 152.353 154.202L149.459 156.442L148.959 155.914C148.213 155.125 137.842 141.775 137.71 141.434C137.614 141.181 143.002 136.722 143.354 136.763C143.417 136.771 144.342 137.9 145.409 139.273C146.476 140.646 147.412 141.694 147.489 141.603C147.565 141.512 147.9 139.39 148.233 136.889C148.717 133.253 148.92 132.283 149.245 132.05C149.468 131.89 151.146 130.574 152.972 129.125C156.329 126.461 156.636 126.258 156.636 126.707ZM78.2579 133.494C86.179 139.789 87.5015 141.905 85.7931 145.553C83.4785 150.494 79.1613 150.239 72.3062 144.756C70.5738 143.371 69.0698 142.237 68.9633 142.237C68.8574 142.237 67.8767 143.369 66.7844 144.753C65.6921 146.136 64.7228 147.267 64.6307 147.264C64.3083 147.257 58.9681 142.915 59.0207 142.703C59.0631 142.535 64.1607 136.036 70.2709 128.361L70.8497 127.634L71.7789 128.358C72.2896 128.757 75.2053 131.068 78.2579 133.494ZM72.8632 137.084C71.4016 138.904 71.3867 138.722 73.1082 140.098C76.3904 142.722 77.2365 143.046 78.294 142.085C79.8689 140.653 79.4762 139.715 76.1946 137.069C73.9968 135.297 74.2979 135.296 72.8632 137.084ZM96.1176 143.503C104.32 145.381 108.413 146.307 109.806 146.6C110.561 146.758 111.214 146.914 111.257 146.946C111.532 147.15 110.282 151.384 109.947 151.384C109.741 151.384 106.896 150.775 103.624 150.03C97.2609 148.582 97.4727 148.584 97.2122 149.97C97.0113 151.037 96.8304 150.958 102.248 152.179C104.893 152.775 107.12 153.3 107.196 153.345C107.477 153.513 106.353 157.67 106.01 157.736C105.825 157.772 103.494 157.301 100.829 156.691L95.9848 155.582L95.7386 156.558C95.6035 157.094 95.493 157.674 95.493 157.846C95.493 158.069 97.3428 158.581 101.913 159.623C105.444 160.427 108.426 161.144 108.54 161.214C108.718 161.323 107.849 165.659 107.604 165.888C107.531 165.955 87.2839 161.446 87.0664 161.314C87.0292 161.291 87.5736 158.765 88.2761 155.7C88.9779 152.635 89.9146 148.532 90.3565 146.582C91.233 142.716 91.3006 142.466 91.4735 142.466C91.5376 142.466 93.6278 142.933 96.1176 143.503ZM134.652 152.206C137.738 156.801 140.292 160.688 140.328 160.845C140.374 161.042 139.211 161.369 136.574 161.902L132.754 162.673L132.387 162.201C132.184 161.941 131.915 161.565 131.789 161.364C131.584 161.037 131.154 161.087 127.571 161.852L123.582 162.704L123.335 163.722L123.087 164.741L119.351 165.517C117.296 165.944 115.571 166.25 115.518 166.198C115.465 166.145 115.719 164.669 116.083 162.917C116.446 161.164 117.387 156.593 118.173 152.757C118.959 148.92 119.623 145.754 119.65 145.721C119.744 145.603 127.906 143.892 128.469 143.872C128.973 143.855 129.711 144.85 134.652 152.206ZM125.258 150.603C125.255 150.718 125.051 152.15 124.805 153.786C124.559 155.421 124.355 156.969 124.352 157.227L124.347 157.694L126.637 157.231C127.896 156.976 128.927 156.698 128.927 156.614C128.927 156.26 125.266 150.264 125.258 150.603Z" fill="white"/>
</g>
<defs>
<clipPath id="clip0">
<path d="M0 0H229V185H0V0Z" fill="black"/>
</clipPath>
</defs>
</svg>
