<?xml version="1.0" encoding="utf-8"?>
<!-- Generator: Adobe Illustrator 24.3.0, SVG Export Plug-In . SVG Version: 6.00 Build 0)  -->
<svg version="1.1" id="Layer_1" xmlns="http://www.w3.org/2000/svg" xmlns:xlink="http://www.w3.org/1999/xlink" x="0px" y="0px"
	 viewBox="0 0 668.1 1058" style="enable-background:new 0 0 668.1 1058;" xml:space="preserve">
<style type="text/css">
	.st0{fill:#133E5B;}
	.st1{fill:#2B78BD;}
	.st2{fill:#661018;}
	.st3{fill:#BC1E2E;}
	.st4{fill:#3A1D43;}
	.st5{fill:#9E4DB2;}
	.st6{fill:#595928;}
	.st7{fill:#B3B721;}
	.st8{fill:#604F43;}
	.st9{fill:#B5967F;}
	.st10{fill:#4A5B60;}
	.st11{fill:#91ACB5;}
	.st12{fill:#682649;}
	.st13{fill:#B5407E;}
	.st14{fill:#2B6934;}
	.st15{fill:#42B549;}
	.st16{fill:#68451B;}
	.st17{fill:#B2761F;}
	.st18{fill:#0E1F37;}
	.st19{opacity:0.76;fill:#FFFFFF;enable-background:new    ;}
	.st20{font-family:'Verdana';}
	.st21{font-size:14.5px;}
	.st22{fill:#FFFFFF;}
	.st23{fill:#89B2DE;}
	.st24{font-size:21px;}
</style>
<g id="areas">
	<g id="cncRoom">
		
			<rect x="22.4" y="91" transform="matrix(0.9908 -0.1355 0.1355 0.9908 -23.4133 13.11)" class="st0" width="124.4" height="175.1"/>
		<path class="st1" d="M131.7,86.9l22.9,167.4l-117.1,16L14.6,102.9L131.7,86.9 M137,79.9L7.6,97.6l24.6,179.6l129.4-17.7L137,79.9
			L137,79.9z"/>
	</g>
	<g id="laserEngravers">
		
			<rect x="89" y="516.3" transform="matrix(0.9908 -0.1355 0.1355 0.9908 -75.5458 29.4747)" class="st2" width="179.5" height="106.8"/>
		<path class="st3" d="M257.8,508.1l13.6,99.7L99.7,631.3l-13.6-99.7L257.8,508.1 M263.1,501.2l-184,25.1l15.3,112l183.9-25.2
			L263.1,501.2L263.1,501.2z"/>
	</g>
	<g id="electronics">
		
			<rect x="328.6" y="370.2" transform="matrix(0.9908 -0.1355 0.1355 0.9908 -62.2632 58.825)" class="st4" width="144.8" height="233.2"/>
		<path class="st5" d="M454.2,365L485,589.9l-137.3,18.8l-30.8-224.9L454.2,365 M459.5,358l-149.6,20.5l32.4,237.2L492,595.2
			L459.5,358L459.5,358z"/>
	</g>
	<g id="computersPrinters">
		
			<rect x="359.9" y="607.5" transform="matrix(0.9908 -0.1355 0.1355 0.9908 -93.004 65.1781)" class="st6" width="144.8" height="216.6"/>
		<path class="st7" d="M486.7,602.2l28.5,208.5l-137.3,18.8L349.4,621L486.7,602.2 M492,595.2l-149.6,20.5l30.2,220.8L522.2,816
			L492,595.2L492,595.2z"/>
	</g>
	<g id="multiUse">
		
			<rect x="107.3" y="628.1" transform="matrix(0.9908 -0.1355 0.1355 0.9908 -93.5002 33.1878)" class="st8" width="179.5" height="150.7"/>
		<path class="st9" d="M273.1,620.1l19.6,143.2L121,786.8l-19.6-143.2L273.1,620.1 M278.4,613.1l-184,25.2l21.3,155.5l183.9-25.2
			L278.4,613.1L278.4,613.1z"/>
	</g>
	<g id="dedicatedSpace1">
		
			<rect x="130.9" y="914.5" transform="matrix(0.9908 -0.1355 0.1355 0.9908 -129.4944 38.2582)" class="st10" width="170.8" height="111.8"/>
		<path class="st11" d="M290.6,907l14.3,104.6l-163,22.3l-14.3-104.6L290.6,907 M295.9,900l-175.3,24l16,116.9l175.3-24L295.9,900
			L295.9,900z"/>
	</g>
	<g id="metalShop">
		<polygon class="st12" points="300.5,285.2 300.5,285.2 296,252.9 336.5,247.4 336.5,247.3 336.7,247.3 323.8,154.6 310.8,59.4 
			528.9,29.6 529.9,36.9 553.5,209.6 545.7,210.7 548.3,229.6 556.1,228.5 570.4,332.9 419.5,353.5 416.4,353.9 311.8,368.2 		"/>
		<path class="st13" d="M526.2,33.1l0.6,4.3L550,206.9l-1.7,0.2l-6.1,0.8l0.8,6.1l1.7,12.8l0.8,6.1l6.1-0.8l1.7-0.2l13.4,98.2
			L422.1,350v-0.1l-6.1,0.8l-101.5,13.9L304,287.8l-0.9-6.1l-3.6-26.1l34.3-4.7l6.1-0.8V250h0.2l-0.9-6.2l-12.4-89.6l-12.6-92.1
			L526.2,33.1 M531.5,26.1L307.3,56.8l13.4,98.3l12.4,89.6h-0.2v0.1l-40.5,5.5l5.3,38.4l0,0l11.4,83L416.8,357v0.1l157.1-21.5
			L558.8,225l-7.8,1.1l-1.7-12.8l7.8-1.1L533,36.5L531.5,26.1L531.5,26.1z"/>
	</g>
	<g id="woodShop">
		<polygon class="st14" points="68.1,472 62,472.8 38.3,299.4 44.4,298.5 42.7,285.7 172.6,268 147.1,81.8 304.5,60.3 317.7,155.5 
			329.5,242 289.1,247.5 289.1,247.6 282.2,248.5 309.1,445.3 69,478.1 		"/>
		<path class="st15" d="M301.9,63.8l12.8,92.1l11.4,83.5l-34.3,4.7l-6.1,0.8v0.1l-0.7,0.1l-6.1,0.8l0.8,6.1l26.1,190.6l-234,32
			l-0.8-6.1l-6.1,0.8L41.8,302l6.1-0.8l-0.8-6.1l-0.9-6.6l123.8-17l6.1-0.8l-0.8-6.1l-24.6-180L301.9,63.8 M307.2,56.8L143.7,79.2
			l25.5,186.2l0,0l-130,17.8l1.7,12.8l-6.1,0.8l24.6,179.6l6.1-0.8l0.8,6.1L312.6,448l-26.9-196.7l6.7-0.9h0.2v-0.1l40.5-5.5
			l-12.3-89.6L307.2,56.8L307.2,56.8z"/>
	</g>
	<g id="printers3d">
		<polygon class="st16" points="463,360.6 572.1,345.7 579.8,402 572,403.1 574.6,422 582.4,420.9 585.3,442.2 585.2,442.3 
			606,593.8 598.3,594.9 600.9,613.8 608.5,612.8 612.2,639.8 503.2,654.7 		"/>
		<path class="st17" d="M569.5,349.2l6.9,50.2l-1.7,0.2l-6.1,0.8l0.8,6.1l1.7,12.8l0.8,6.1l6.1-0.8l1.7-0.2l2.1,15.1h-0.1l0.8,6.1
			L602.4,591l-1.5,0.2l-6.1,0.8l0.8,6.1l1.7,12.8l0.8,6.1l6.1-0.8l1.5-0.2l2.9,20.9L505.7,651l-26.2-191.4l-13.2-96.5L569.5,349.2
			 M574.8,342.2L459.5,358l14,102.7l27,197.5l115.1-15.7l-4.5-33.2l-7.7,1.1l-1.7-12.8l7.7-1.1l-20.7-151.6h0.1l-3.8-27.4l-7.8,1.1
			l-1.7-12.8l7.8-1.1L574.8,342.2L574.8,342.2z"/>
	</g>
	<g id="dedicatedSpace2">
		<polygon class="st10" points="504.1,660.8 613.1,645.9 632.3,786.4 624.6,787.4 627.2,806.3 634.9,805.3 657,966.8 548,981.7 		
			"/>
		<path class="st11" d="M610.4,649.4l18.4,134.3l-1.5,0.2l-6.1,0.8l0.8,6.1l1.7,12.8l0.8,6.1l6.1-0.8l1.5-0.2l21.2,155.4
			l-102.9,14.1l-43.1-314.7L610.4,649.4 M615.7,642.4l-115.1,15.7l44.7,327l115.1-15.7l-22.9-167.6l-7.7,1.1l-1.7-12.8l7.7-1.1
			L615.7,642.4L615.7,642.4z"/>
	</g>
</g>
<g id="walls">
	<g>
		<polygon class="st18" points="61.1,489.1 67.2,488.3 268.9,460.7 268,454 66.3,481.6 65.5,475.5 59.4,476.3 34.8,296.7 
			40.9,295.9 39.2,283.1 86.3,276.6 85.4,270 32.1,277.3 7.6,97.8 137,80.1 161.5,259.6 119.9,265.2 120.8,271.9 169.1,265.3 
			168.8,263.2 168.2,258.6 143.7,79.2 143.7,79.2 143.6,79 266.7,62.2 307.3,56.7 307.3,56.8 383.6,46.3 382.6,39.7 6.7,91.1 
			6.7,91.1 0,92 0,92 0.9,98.7 55.6,498.2 62.2,497.3 		"/>
		<polygon class="st18" points="668.1,974.7 537.3,18.5 530.6,19.4 530.6,19.4 418.6,34.8 419.5,41.4 531.5,26.1 531.6,26.1 
			533,36.5 557,212.3 549.2,213.3 551,226.1 558.8,225 562.2,250.4 573.9,335.5 309,371.8 292.4,250.3 285.7,251.2 312.6,447.9 
			302.5,449.3 303.5,456 313.6,454.6 316.6,454.2 320.2,453.7 309.9,378.4 459.5,358 574.8,342.2 583.3,404.7 575.5,405.7 
			577.3,418.5 585.1,417.5 588.8,444.9 609.6,596.5 609.5,596.5 601.8,597.5 603.5,610.3 611.2,609.3 611.3,609.2 635.9,789 
			635.8,789 628.1,790.1 629.8,802.9 637.5,801.8 637.7,801.8 660.6,969.4 660.5,969.4 545.3,985.2 363,1010.1 363.9,1016.8 
			668,975.2 668,974.8 		"/>
		<path class="st18" d="M318.6,1016.2l-2.9-21.2l-6.7,0.9l2.9,21.2l-175.3,24l-16.1-117.4l175.3-24l8.4,61.7l6.7-0.9l-8.4-61.7
			l-0.9-6.7l-10.5-76.8l-0.9-6.7l-6.7,0.9l-140.1,19.2l-4.3-31.3l-0.9-6.5v-0.2l-22.6,3.1L79.1,526.3L66.4,528l-1.2-8.6l-6.7,0.9
			l71.4,521.7l0.9,6.2l0.1,0.4l197.1-27l-0.9-6.7L318.6,1016.2z M103.9,802.2l28.6-3.9l4.3,31.3l-28.6,3.9L103.9,802.2z
			 M113.7,873.5l6.1-0.8l-1.7-12.8l-6.1,0.8l-2.8-20.5l175.3-24L295,893l-175.3,24L113.7,873.5z"/>
	</g>
</g>
<g id="areaLabels">
	<text transform="matrix(0.9908 -0.1355 0.1355 0.9908 164.0747 103.7991)" class="st19 st20 st21">WOOD SHOP</text>
	<text transform="matrix(0.9908 -0.1355 0.1355 0.9908 25.8548 121.6448)" class="st19 st20 st21">CNC</text>
	<text transform="matrix(0.9908 -0.1355 0.1355 0.9908 327.925 80.7317)" class="st19 st20 st21">METAL SHOP</text>
	<text transform="matrix(0.9908 -0.1355 0.1355 0.9908 478.9324 382.3171)" class="st22 st20 st21">3D </text>
	<text transform="matrix(0.9908 -0.1355 0.1355 0.9908 481.2901 399.557)" class="st22 st20 st21">PRINTING</text>
	<text transform="matrix(0.9908 -0.1355 0.1355 0.9908 520.1304 685.1411)" class="st22 st20 st21">DEDICATED</text>
	<text transform="matrix(0.9908 -0.1355 0.1355 0.9908 522.488 702.381)" class="st22 st20 st21">SPACE</text>
	<text transform="matrix(0.9908 -0.1355 0.1355 0.9908 327.9249 402.4041)" class="st19 st20 st21">ELECTRONICS</text>
	<text transform="matrix(0.9908 -0.1355 0.1355 0.9908 361.0663 641.3872)" class="st22 st20 st21">COMPUTERS </text>
	<text transform="matrix(0.9908 -0.1355 0.1355 0.9908 363.424 658.6271)" class="st22 st20 st21">PRINTERS</text>
	<text transform="matrix(0.9908 -0.1355 0.1355 0.9908 97.4465 551.5082)" class="st19 st20 st21">LASER</text>
	<text transform="matrix(0.9908 -0.1355 0.1355 0.9908 112.4484 663.9507)" class="st19 st20 st21">MULTI-USE</text>
	<text transform="matrix(0.9908 -0.1355 0.1355 0.9908 139.5124 949.2388)" class="st19 st20 st21">DEDICATED SPACE</text>
</g>
<g id="exitLabels">
	<text transform="matrix(0.9908 -0.1355 0.1355 0.9908 312.3141 1051.6542)" class="st23 st20 st24">NORTH ENTRANCE</text>
	<text transform="matrix(0.9908 -0.1355 0.1355 0.9908 262.8535 44.65)" class="st23 st20 st24">SOUTH ENTRANCE</text>
</g>
</svg>
